<svg viewBox="-3.5 -2 50 50" fill="none" xmlns="http://www.w3.org/2000/svg">
<path d="M7.8003 13.5H34.8003C35.2971 13.5 35.7003 13.0977 35.7003 12.6C35.7003 12.1023 35.2971 11.7 34.8003 11.7H7.8003C7.3035 11.7 6.9003 12.1023 6.9003 12.6C6.9003 13.0977 7.3026 13.5 7.8003 13.5Z" fill="#E5E5E5"/>
<path d="M7.8003 33.3H34.8003C35.2971 33.3 35.7003 32.8977 35.7003 32.4C35.7003 31.9023 35.2971 31.5 34.8003 31.5H7.8003C7.3035 31.5 6.9003 31.9023 6.9003 32.4C6.9003 32.8977 7.3026 33.3 7.8003 33.3Z" fill="#E5E5E5"/>
<path d="M7.8003 23.4H34.8003C35.2971 23.4 35.7003 22.9977 35.7003 22.5C35.7003 22.0023 35.2971 21.6 34.8003 21.6H7.8003C7.3035 21.6 6.9003 22.0023 6.9003 22.5C6.9003 22.9977 7.3026 23.4 7.8003 23.4Z" fill="#E5E5E5"/>
</svg>
