<svg width="50" height="50" viewBox="0 0 50 50" fill="none" xmlns="http://www.w3.org/2000/svg">
<g clip-path="url(#clip0)">
<path d="M11.9679 27.1877C10.7408 27.1877 9.74243 28.1859 9.74243 29.413C9.74243 30.64 10.7408 31.6383 11.9679 31.6383C13.195 31.6383 14.1932 30.64 14.1932 29.413C14.1932 28.1859 13.1949 27.1877 11.9679 27.1877ZM11.9679 30.1708C11.5501 30.1708 11.2102 29.8309 11.2102 29.4132C11.2102 28.9955 11.5501 28.6556 11.9679 28.6556C12.3857 28.6556 12.7255 28.9955 12.7255 29.4132C12.7255 29.8309 12.3856 30.1708 11.9679 30.1708Z" fill="url(#paint0_linear)"/>
<path d="M32.1019 41.3393C32.0038 41.0366 31.7219 40.832 31.404 40.832H27.0449L25.6978 36.6862C25.6007 36.3873 25.3141 36.1791 24.9998 36.1791C24.6856 36.1791 24.3991 36.3872 24.3019 36.6862L22.9548 40.832H18.5957C18.2779 40.832 17.996 41.0367 17.8978 41.3392C17.7995 41.6415 17.9072 41.9729 18.1644 42.1596L21.691 44.7219L20.3439 48.8677C20.2498 49.1568 20.3487 49.4825 20.5875 49.6707C20.8427 49.8718 21.2103 49.8791 21.4732 49.6881L24.9997 47.1258L28.5263 49.6881C28.8021 49.8885 29.1898 49.8692 29.4447 49.6432C29.6608 49.4515 29.7449 49.1425 29.6555 48.8678L28.3084 44.722L31.835 42.1597C32.0925 41.973 32.2001 41.6416 32.1019 41.3393ZM27.0147 43.8478C26.7575 44.0346 26.6498 44.3658 26.7481 44.6682L27.5619 47.1731L25.4311 45.625C25.1768 45.4401 24.8227 45.4401 24.5685 45.625L22.4376 47.1731L23.2515 44.6682C23.3497 44.3658 23.2421 44.0345 22.9849 43.8478L20.8541 42.2997H23.4879C23.8058 42.2997 24.0876 42.095 24.1859 41.7926L24.9997 39.2877L25.8136 41.7926C25.9119 42.095 26.1937 42.2997 26.5116 42.2997H29.1454L27.0147 43.8478Z" fill="url(#paint1_linear)"/>
<path d="M49.9639 41.3391C49.8657 41.0366 49.5839 40.8319 49.266 40.8319H44.9069L43.5598 36.6861C43.4628 36.3872 43.1762 36.179 42.8619 36.179C42.5476 36.179 42.2611 36.3871 42.1639 36.6861L40.8169 40.8319H36.4578C36.1399 40.8319 35.8581 41.0366 35.7598 41.3391C35.6616 41.6414 35.7692 41.9728 36.0264 42.1595L39.553 44.7218L38.2059 48.8676C38.1119 49.1567 38.2107 49.4824 38.4496 49.6706C38.7048 49.8717 39.0723 49.879 39.3352 49.688L42.8618 47.1257L46.3884 49.688C46.6642 49.8884 47.0518 49.8691 47.3068 49.6431C47.5229 49.4514 47.607 49.1424 47.5177 48.8677L46.1706 44.7219L49.6971 42.1596C49.9547 41.9727 50.0623 41.6414 49.9639 41.3391ZM44.8767 43.8478C44.6195 44.0346 44.5119 44.3658 44.6101 44.6682L45.4239 47.173L43.2932 45.625C43.0359 45.4381 42.6877 45.438 42.4305 45.625L40.2997 47.173L41.1136 44.6682C41.2118 44.3658 41.1042 44.0345 40.847 43.8478L38.7162 42.2997H41.3501C41.6679 42.2997 41.9498 42.095 42.048 41.7926L42.8619 39.2877L43.6758 41.7926C43.774 42.095 44.0558 42.2997 44.3737 42.2997H47.0075L44.8767 43.8478Z" fill="url(#paint2_linear)"/>
<path d="M14.2399 41.3393C14.1416 41.0366 13.8597 40.832 13.5419 40.832H9.18279L7.83572 36.6862C7.73748 36.3838 7.45565 36.1791 7.13777 36.1791C6.8199 36.1791 6.53807 36.3838 6.43982 36.6862L5.09275 40.832H0.733672C0.415801 40.832 0.133965 41.0367 0.0357231 41.3392C-0.062519 41.6415 0.0450981 41.9729 0.302325 42.1596L3.82889 44.7219L2.48182 48.8677C2.38357 49.17 2.49119 49.5014 2.74842 49.6881C3.00555 49.875 3.35389 49.875 3.61111 49.6881L7.13768 47.1258L10.6642 49.6881C10.9401 49.8885 11.3277 49.8692 11.5826 49.6432C11.7987 49.4515 11.8828 49.1425 11.7934 48.8678L10.4464 44.722L13.9729 42.1597C14.2305 41.973 14.3382 41.6416 14.2399 41.3393ZM9.15262 43.8478C8.89539 44.0346 8.78777 44.3658 8.88602 44.6682L9.69988 47.1731L7.56902 45.625C7.31473 45.4401 6.96063 45.4401 6.70633 45.625L4.57566 47.173L5.38943 44.6681C5.48768 44.3657 5.38006 44.0344 5.12283 43.8477L2.99207 42.2996H5.62586C5.94373 42.2996 6.22557 42.0949 6.32381 41.7925L7.13768 39.2876L7.95154 41.7925C8.04979 42.0949 8.33162 42.2996 8.64949 42.2996H11.2833L9.15262 43.8478Z" fill="url(#paint3_linear)"/>
<path d="M44.0593 18.4666C44.8173 17.8566 45.3031 16.9214 45.3031 15.875C45.3031 14.0413 43.8113 12.5495 41.9778 12.5495H30.1735C30.5404 11.7495 30.9639 10.5309 31.206 8.83682C31.7683 4.90039 30.9186 2.81094 30.1068 1.75127C29.4197 0.854399 28.4965 0.312016 27.4373 0.182914C26.5436 0.0731486 25.7275 0.783012 25.7036 1.68086C25.5662 3.09239 25.0636 6.96475 24.3437 8.40479C22.4942 12.1038 18.0846 14.3092 16.7227 14.9193C16.2461 14.5098 15.6272 14.2614 14.951 14.2614H8.98479C7.48362 14.2614 6.26233 15.4826 6.26233 16.9839V31.899C6.26233 33.4003 7.48362 34.6215 8.98479 34.6215H14.9508C15.754 34.6215 16.477 34.2716 16.9756 33.7165C17.7501 34.2055 19.0001 34.7502 20.7264 34.7502H39.9044C41.7381 34.7502 43.2298 33.2584 43.2298 31.4248C43.2298 30.5843 42.9163 29.8155 42.4001 29.2294C43.5044 28.6879 44.2663 27.5519 44.2663 26.2414C44.2663 25.4009 43.9529 24.6322 43.4366 24.046C44.5409 23.5046 45.3029 22.3686 45.3029 21.0581C45.3031 20.0118 44.8172 19.0766 44.0593 18.4666ZM14.9508 33.1537H8.98479C8.2929 33.1537 7.73 32.5908 7.73 31.8989V16.9838C7.73 16.2919 8.2929 15.729 8.98479 15.729H14.9508C15.3012 15.729 15.6181 15.8737 15.8459 16.1062V32.4714C15.8459 32.5592 15.8618 32.6453 15.8919 32.7262C15.6617 32.9876 15.3257 33.1537 14.9508 33.1537ZM38.8945 19.2004H41.9781C43.0025 19.2004 43.8358 20.0339 43.8358 21.0581C43.8358 22.0823 43.0024 22.9158 41.9781 22.9158H38.8945C38.4892 22.9158 38.1606 23.2443 38.1606 23.6497C38.1606 24.0551 38.4892 24.3836 38.8945 24.3836H40.9413C41.9657 24.3836 42.799 25.2171 42.799 26.2413C42.799 27.2655 41.9656 28.099 40.9413 28.099H38.3319C37.9266 28.099 37.598 28.4275 37.598 28.8329C37.598 29.2383 37.9266 29.5668 38.3319 29.5668H39.9046C40.9289 29.5668 41.7623 30.4003 41.7623 31.4246C41.7623 32.4489 40.9289 33.2823 39.9046 33.2823H20.7266C19.2119 33.2823 18.1851 32.7749 17.6276 32.3939C17.6572 32.2332 17.6736 32.0679 17.6736 31.8987V16.9838C17.6736 16.6969 17.6286 16.4204 17.546 16.1606C19.2656 15.3715 23.6678 13.0382 25.6564 9.06114C26.651 7.07198 27.1469 2.00655 27.1675 1.7919C27.1697 1.76866 27.1708 1.74512 27.1708 1.72178C27.1708 1.69678 27.1804 1.67549 27.1992 1.65889C27.2256 1.63575 27.251 1.63868 27.2595 1.63975C27.7189 1.6958 28.3836 1.91553 28.9417 2.64385C29.5824 3.48018 30.2433 5.19746 29.753 8.6293C29.3375 11.5382 28.3523 12.8107 28.3461 12.8187C27.9614 13.2888 28.3078 14.0173 28.914 14.0173H41.978C43.0024 14.0173 43.8357 14.8508 43.8357 15.8751C43.8357 16.8995 43.0023 17.7328 41.978 17.7328H38.8944C38.4891 17.7328 38.1605 18.0613 38.1605 18.4667C38.1605 18.8721 38.4891 19.2004 38.8945 19.2004Z" fill="url(#paint4_linear)"/>
</g>
<defs>
<linearGradient id="paint0_linear" x1="11.9678" y1="31.6383" x2="11.9678" y2="27.101" gradientUnits="userSpaceOnUse">
<stop stop-color="#EC7878"/>
<stop offset="1" stop-color="#CA5D5D"/>
</linearGradient>
<linearGradient id="paint1_linear" x1="24.9998" y1="49.8266" x2="24.9998" y2="35.9132" gradientUnits="userSpaceOnUse">
<stop stop-color="#EC7878"/>
<stop offset="1" stop-color="#CA5D5D"/>
</linearGradient>
<linearGradient id="paint2_linear" x1="42.8619" y1="49.8265" x2="42.8619" y2="35.9131" gradientUnits="userSpaceOnUse">
<stop stop-color="#EC7878"/>
<stop offset="1" stop-color="#CA5D5D"/>
</linearGradient>
<linearGradient id="paint3_linear" x1="7.13782" y1="49.8283" x2="7.13782" y2="35.9132" gradientUnits="userSpaceOnUse">
<stop stop-color="#EC7878"/>
<stop offset="1" stop-color="#CA5D5D"/>
</linearGradient>
<linearGradient id="paint4_linear" x1="25.7827" y1="34.7502" x2="25.7827" y2="-0.502032" gradientUnits="userSpaceOnUse">
<stop stop-color="#EC7878"/>
<stop offset="1" stop-color="#CA5D5D"/>
</linearGradient>
<clipPath id="clip0">
<rect width="50" height="50" fill="white"/>
</clipPath>
</defs>
</svg>
