<svg width="60" height="60" viewBox="0 0 60 60" fill="none" xmlns="http://www.w3.org/2000/svg">
<path d="M30 0C18.3374 0.0133302 8.88626 9.46445 8.87292 21.1271C8.87292 32.4523 28.3733 57.8883 29.2033 58.9648L30 60L30.7968 58.9648C31.6268 57.8883 51.1272 32.4523 51.1272 21.1271C51.1138 9.46445 41.6627 0.0133302 30 0ZM30 56.682C26.2867 51.7111 10.885 30.5377 10.885 21.1271C10.885 10.5702 19.4431 2.01211 30 2.01211C40.5569 2.01211 49.1151 10.5702 49.1151 21.1271C49.1151 30.5357 33.7134 51.7111 30 56.682Z" fill="url(#paint0_linear)"/>
<path d="M30 14.0847C26.1106 14.0847 22.9576 17.2377 22.9576 21.1271C22.9576 25.0165 26.1106 28.1695 30 28.1695C33.8894 28.1695 37.0424 25.0165 37.0424 21.1271C37.038 17.2396 33.8875 14.0891 30 14.0847ZM30 26.1574C27.2219 26.1574 24.9697 23.9052 24.9697 21.1271C24.9697 18.349 27.2219 16.0969 30 16.0969C32.7781 16.0969 35.0303 18.349 35.0303 21.1271C35.027 23.9038 32.7767 26.1541 30 26.1574Z" fill="url(#paint1_linear)"/>
<defs>
<linearGradient id="paint0_linear" x1="30" y1="60" x2="30" y2="-1.16903" gradientUnits="userSpaceOnUse">
<stop stop-color="#EC7878"/>
<stop offset="1" stop-color="#CA5D5D"/>
</linearGradient>
<linearGradient id="paint1_linear" x1="30" y1="59.9507" x2="30" y2="-1.22033" gradientUnits="userSpaceOnUse">
<stop stop-color="#CA5D5D"/>
<stop offset="1" stop-color="#EF6060"/>
</linearGradient>
</defs>
</svg>
