<svg width="150" height="150" viewBox="0 0 150 150" fill="none" xmlns="http://www.w3.org/2000/svg">
<g clip-path="url(#clip0)">
<path d="M139.511 92.1499C139.922 90.4916 140.578 88.2977 140.824 86.0303C141.165 83.774 141.576 81.525 141.569 79.808C141.65 78.102 141.712 76.961 141.712 76.961L137.126 76.8289C137.126 76.8289 137.071 77.8892 136.994 79.4851C137.009 81.0884 136.612 83.1796 136.301 85.2782C136.081 87.3951 135.46 89.435 135.075 90.9759C134.683 92.5168 134.415 93.5441 134.415 93.5441L138.795 94.9126C138.799 94.9089 139.082 93.8009 139.511 92.1499Z" fill="#E5E5E5"/>
<path d="M145.234 80.0684C145.234 81.8771 144.809 84.2509 144.453 86.6283C144.185 89.024 143.503 91.3391 143.059 93.0928C142.6 94.8391 142.299 96.0022 142.299 96.0022L146.676 97.367C146.676 97.367 146.999 96.1269 147.487 94.2631C147.964 92.3994 148.683 89.9302 148.969 87.3804C149.354 84.8526 149.802 82.3174 149.809 80.3986C149.901 78.4798 149.971 77.203 149.971 77.203L145.385 77.0673C145.385 77.0673 145.322 78.2707 145.234 80.0684Z" fill="#E5E5E5"/>
<path d="M130.504 112.185C131.392 110.725 132.573 108.77 133.762 106.825C134.756 104.767 135.739 102.716 136.48 101.175C137.082 99.5683 137.475 98.5006 137.475 98.5006L133.182 96.8864C133.182 96.8864 132.808 97.8806 132.261 99.3738C131.571 100.808 130.654 102.72 129.73 104.635C128.633 106.451 127.525 108.263 126.699 109.625C125.745 110.905 125.114 111.756 125.114 111.756L128.813 114.475C128.813 114.475 129.491 113.558 130.504 112.185Z" fill="#E5E5E5"/>
<path d="M139.856 102.613C139.074 104.239 138.029 106.407 136.983 108.575C135.736 110.63 134.481 112.688 133.549 114.229C132.474 115.682 131.766 116.647 131.766 116.647L135.46 119.365C135.46 119.365 136.22 118.334 137.357 116.786C138.355 115.142 139.687 112.952 141.019 110.758C142.13 108.451 143.242 106.139 144.079 104.411C144.754 102.613 145.205 101.414 145.205 101.414L140.912 99.8031C140.909 99.7994 140.49 100.926 139.856 102.613Z" fill="#E5E5E5"/>
<path d="M113.099 129.829C113.099 129.829 114.009 129.146 115.377 128.123C116.06 127.598 116.882 127.033 117.707 126.354C118.496 125.639 119.34 124.872 120.183 124.105C121.937 122.634 123.456 120.935 124.59 119.651C125.738 118.386 126.505 117.545 126.505 117.545L122.972 114.621C122.972 114.621 122.256 115.407 121.181 116.577C120.128 117.773 118.709 119.362 117.076 120.73C116.295 121.442 115.506 122.161 114.776 122.829C114.009 123.46 113.235 123.984 112.604 124.472C111.331 125.43 110.483 126.065 110.483 126.065L113.099 129.829Z" fill="#E5E5E5"/>
<path d="M127.316 122.106C126.12 123.452 124.505 125.239 122.664 126.798C121.776 127.609 120.888 128.416 120.048 129.172C119.182 129.884 118.312 130.485 117.597 131.039C116.148 132.118 115.19 132.837 115.19 132.837L117.806 136.601C117.806 136.601 118.833 135.835 120.378 134.69C121.137 134.107 122.055 133.461 122.979 132.698C123.871 131.894 124.821 131.032 125.767 130.174C127.723 128.512 129.444 126.611 130.72 125.177C132.012 123.75 132.867 122.803 132.867 122.803L129.334 119.879C129.337 119.879 128.526 120.77 127.316 122.106Z" fill="#E5E5E5"/>
<path d="M101.817 136.143C103.857 135.13 105.956 134.224 107.431 133.365C108.891 132.478 109.867 131.887 109.867 131.887L107.471 127.976C107.471 127.976 106.565 128.53 105.204 129.359C103.828 130.155 101.869 130.988 99.9719 131.942C98.0421 132.819 95.9985 133.432 94.5237 134.015C93.7899 134.316 93.1479 134.503 92.6929 134.595C92.2417 134.708 91.9848 134.774 91.9848 134.774L93.2322 139.192C93.2322 139.192 93.5111 139.118 93.9917 138.997C94.4833 138.891 95.1657 138.696 95.9618 138.377C97.5541 137.753 99.7444 137.089 101.817 136.143Z" fill="#E5E5E5"/>
<path d="M109.225 136.579C107.658 137.482 105.449 138.443 103.292 139.511C101.102 140.505 98.7942 141.217 97.1139 141.87C96.2737 142.204 95.5546 142.409 95.0373 142.527C94.5273 142.659 94.2412 142.732 94.2412 142.732L95.4886 147.146C95.4886 147.146 95.7968 147.069 96.3361 146.926C96.8827 146.801 97.6495 146.581 98.5484 146.228C100.342 145.539 102.804 144.776 105.134 143.715C107.434 142.582 109.786 141.551 111.452 140.59C113.095 139.595 114.192 138.931 114.192 138.931L111.793 135.02C111.789 135.017 110.762 135.64 109.225 136.579Z" fill="#E5E5E5"/>
<path d="M80.1455 136.917C78.0213 136.983 75.9007 137.214 74.3048 137.144C72.7125 137.06 71.6522 137.005 71.6522 137.005L71.4064 141.587C71.4064 141.587 72.5437 141.646 74.2534 141.734C75.9631 141.811 78.2378 141.573 80.5198 141.499C82.8055 141.43 85.0361 140.883 86.7348 140.688C88.4371 140.479 89.5341 140.153 89.5341 140.153L88.5398 135.67C88.5398 135.67 87.5272 135.974 85.9386 136.168C84.35 136.341 82.2735 136.866 80.1455 136.917Z" fill="#E5E5E5"/>
<path d="M87.3658 144.299C85.5754 144.508 83.2164 145.073 80.8096 145.146C78.4102 145.231 76.0071 145.473 74.2094 145.396C72.408 145.304 71.2083 145.245 71.2083 145.245L70.9625 149.824C70.9625 149.824 72.2392 149.886 74.158 149.982C76.0732 150.059 78.634 149.817 81.1875 149.717C83.7483 149.633 86.2652 149.039 88.1693 148.808C90.0807 148.565 91.3098 148.206 91.3098 148.206L90.3155 143.726C90.3192 143.734 89.1599 144.071 87.3658 144.299Z" fill="#E5E5E5"/>
<path d="M62.7773 135.959C61.8014 135.765 60.7851 135.453 59.7542 135.2C58.7269 134.939 57.6996 134.675 56.7347 134.433C55.7992 134.096 54.926 133.78 54.1776 133.512C52.6807 132.973 51.6828 132.602 51.6828 132.602L49.9584 136.855C49.9584 136.855 51.0297 137.244 52.633 137.834C53.4365 138.124 54.3757 138.458 55.3809 138.825C56.4155 139.089 57.5199 139.368 58.6242 139.658C59.7322 139.929 60.8255 140.256 61.8711 140.468C62.9277 140.626 63.9146 140.777 64.7621 140.905C66.4498 141.162 67.5798 141.338 67.5798 141.338L68.0898 136.778C68.0898 136.778 67.0405 136.616 65.4665 136.378C64.6814 136.246 63.7605 136.106 62.7773 135.959Z" fill="#E5E5E5"/>
<path d="M61.1557 144.056C60.0514 143.836 58.8957 143.495 57.7253 143.213C56.5623 142.912 55.3956 142.611 54.3023 142.332C53.231 141.984 52.2514 141.595 51.4003 141.294C49.7053 140.674 48.5753 140.259 48.5753 140.259L46.8472 144.511C46.8472 144.511 48.0506 144.952 49.8557 145.616C50.7619 145.939 51.8075 146.35 52.9485 146.716C54.1115 147.021 55.3516 147.344 56.5953 147.667C57.8391 147.971 59.0718 148.331 60.2495 148.566C61.4382 148.749 62.5425 148.921 63.4927 149.068C65.3932 149.354 66.6589 149.545 66.6589 149.545L67.1689 144.985C67.1689 144.985 65.9802 144.805 64.1935 144.533C63.3129 144.383 62.271 144.225 61.1557 144.056Z" fill="#E5E5E5"/>
<path d="M46.0475 129.983C44.6203 129.282 42.8593 128.075 41.0248 127.011C39.2308 125.874 37.6018 124.494 36.2994 123.577C35.6427 123.122 35.151 122.678 34.8135 122.355C34.4686 122.044 34.2742 121.864 34.2742 121.864L31.2621 125.327C31.2621 125.327 31.4749 125.518 31.8418 125.855C32.2013 126.2 32.7333 126.677 33.4377 127.165C34.8319 128.156 36.5819 129.627 38.508 130.845C40.4745 131.993 42.3713 133.277 43.9012 134.037C45.4421 134.774 46.4694 135.27 46.4694 135.27L48.4395 131.128C48.4395 131.131 47.482 130.673 46.0475 129.983Z" fill="#E5E5E5"/>
<path d="M36.4975 133.916C34.465 132.624 32.6122 131.08 31.1484 130.027C30.4073 129.506 29.8496 129.011 29.468 128.644C29.0791 128.291 28.8553 128.093 28.8553 128.093L25.8432 131.549C25.8432 131.549 26.078 131.77 26.4963 132.14C26.9035 132.525 27.5016 133.057 28.2867 133.611C29.8459 134.73 31.8234 136.374 33.9844 137.746C36.1857 139.048 38.3283 140.476 40.0453 141.334C41.7769 142.174 42.929 142.728 42.929 142.728L44.8954 138.586C44.8954 138.586 43.8131 138.065 42.1879 137.284C40.5736 136.48 38.5704 135.138 36.4975 133.916Z" fill="#E5E5E5"/>
<path d="M22.3799 115.939C23.6639 117.835 25.3516 119.395 26.4559 120.697C27.0319 121.328 27.5089 121.856 27.8427 122.227C28.2133 122.564 28.4261 122.759 28.4261 122.759L31.6326 119.472C31.6326 119.472 31.4345 119.296 31.0896 118.984C30.7778 118.639 30.3302 118.147 29.7982 117.557C28.7709 116.338 27.1897 114.889 26.001 113.125C24.7536 111.408 23.3778 109.775 22.633 108.359C21.8075 106.998 21.2572 106.091 21.2572 106.091L17.2875 108.388C17.2875 108.388 17.8782 109.364 18.7661 110.824C19.5732 112.336 21.0371 114.097 22.3799 115.939Z" fill="#E5E5E5"/>
<path d="M25.2526 124.817C24.8967 124.432 24.3904 123.874 23.785 123.21C22.6147 121.838 20.8463 120.183 19.4852 118.191C18.0653 116.25 16.5281 114.387 15.6696 112.791C14.7341 111.25 14.1104 110.223 14.1104 110.223L10.1407 112.519C10.1407 112.519 10.8047 113.613 11.8027 115.256C12.7235 116.951 14.3488 118.94 15.8641 121.002C17.3206 123.118 19.1917 124.894 20.4427 126.347C21.0921 127.055 21.6314 127.646 22.0093 128.064C22.4239 128.442 22.6587 128.655 22.6587 128.655L25.8653 125.371C25.8616 125.375 25.6415 125.173 25.2526 124.817Z" fill="#E5E5E5"/>
<path d="M10.192 90.6017C10.6763 92.2416 11.0395 94.509 11.931 96.6222C13.3289 100.977 15.4714 105.017 15.4714 105.017L19.5659 102.951C19.5659 102.951 17.5737 99.1941 16.2749 95.1364C15.4348 93.1772 15.1156 91.0603 14.657 89.5377C14.4552 88.7673 14.2901 88.1252 14.1727 87.6776C14.07 87.2227 14.0443 86.9585 14.0443 86.9585L9.54263 87.8317C9.54263 87.8317 9.56831 88.1179 9.6747 88.6022C9.79944 89.0865 9.97555 89.7762 10.192 90.6017Z" fill="#E5E5E5"/>
<path d="M8.45665 97.8109C7.52477 95.5839 7.12854 93.1845 6.62224 91.4601C6.39844 90.587 6.21133 89.8569 6.08292 89.3469C5.97286 88.8333 5.93984 88.5324 5.93984 88.5324L1.43819 89.4129C1.43819 89.4129 1.47121 89.7321 1.58861 90.2751C1.72802 90.8181 1.92614 91.5959 2.16095 92.5278C2.69659 94.3732 3.13685 96.9157 4.11643 99.2931C5.69769 104.187 8.09711 108.733 8.09711 108.733L12.1915 106.671C12.1915 106.667 9.93519 102.404 8.45665 97.8109Z" fill="#E5E5E5"/>
<path d="M8.59607 68.6914C8.51168 70.4011 8.39428 72.6794 8.28055 74.9578C8.39428 77.2361 8.50802 79.5145 8.5924 81.2241C8.72815 82.9265 8.96295 84.0528 8.96295 84.0528L13.5086 83.4364C13.5086 83.4364 13.2848 82.3945 13.1601 80.8022C13.0794 79.21 12.973 77.0857 12.8666 74.9614C12.973 72.8372 13.083 70.7166 13.1638 69.1243C13.3068 67.5394 13.5196 66.4938 13.5196 66.4938L8.97763 65.8701C8.97763 65.8701 8.75016 66.9854 8.59607 68.6914Z" fill="#E5E5E5"/>
<path d="M4.94539 81.5543C4.85734 79.7529 4.73627 77.3498 4.61886 74.9504C4.73993 72.551 4.86101 70.1479 4.94906 68.3465C5.11049 66.5525 5.34529 65.3674 5.34529 65.3674L0.799613 64.7437C0.799613 64.7437 0.553802 66.0058 0.381367 67.9173C0.285977 69.8324 0.157568 72.3896 0.0291595 74.9468C0.157568 77.5076 0.282309 80.0648 0.377698 81.9799C0.531789 83.8914 0.784938 85.1534 0.788607 85.1534L5.33428 84.5371C5.33062 84.5371 5.08847 83.3557 4.94539 81.5543Z" fill="#E5E5E5"/>
<path d="M14.1874 62.2417C14.3048 61.7904 14.4736 61.152 14.6717 60.3816C15.1229 58.8553 15.4605 56.7421 16.297 54.7829C17.0601 52.8055 17.6618 50.7582 18.4469 49.3641C19.1366 47.9296 19.5989 46.9757 19.5989 46.9757L15.5045 44.9065C15.5045 44.9065 15.0092 45.9337 14.2681 47.4746C13.4316 48.9752 12.7749 51.1692 11.9604 53.2971C11.0726 55.4067 10.6873 57.6703 10.2104 59.3103C9.99759 60.1394 9.82149 60.8292 9.69308 61.3098C9.56834 61.7941 9.55 62.0802 9.55 62.0802L14.0516 62.9644C14.0553 62.9644 14.07 62.6929 14.1874 62.2417Z" fill="#E5E5E5"/>
<path d="M6.10493 60.5576C6.23701 60.0476 6.42045 59.3212 6.64425 58.4444C7.14321 56.7127 7.56146 54.3243 8.48967 52.0973C9.34451 49.852 10.0526 47.5406 10.9258 45.952C11.7109 44.3267 12.2319 43.2444 12.2319 43.2444L8.14113 41.1715C8.14113 41.1715 7.58347 42.3235 6.75065 44.0589C5.82977 45.7539 5.05932 48.2083 4.15312 50.6077C3.16987 52.9851 2.71127 55.524 2.18662 57.3731C1.95182 58.3049 1.7537 59.0827 1.61429 59.6257C1.47854 60.1687 1.45653 60.4916 1.45653 60.4916L5.95818 61.3757C5.95451 61.3757 5.97652 61.0712 6.10493 60.5576Z" fill="#E5E5E5"/>
<path d="M28.4921 27.1897C28.4921 27.1897 27.6336 27.9418 26.5146 29.2406C25.414 30.5467 23.7116 32.0949 22.4312 33.9917C19.5512 37.5431 17.3316 41.5385 17.3316 41.5385L21.2976 43.8425C21.2976 43.8425 23.3631 40.1186 26.0487 36.8093C27.2374 35.0446 28.8333 33.6101 29.8533 32.3884C30.8915 31.174 31.695 30.477 31.695 30.477L28.4921 27.1897Z" fill="#E5E5E5"/>
<path d="M19.5402 31.7316C20.8976 29.7395 22.6807 28.0995 23.8474 26.7237C25.0287 25.3552 25.9349 24.5628 25.9313 24.5628L22.7321 21.2718C22.7321 21.2718 21.7708 22.1193 20.5088 23.5722C19.265 25.036 17.3792 26.7934 15.9227 28.9103C12.6942 32.902 10.192 37.3926 10.1883 37.3926L14.1543 39.6967C14.1617 39.6967 16.5061 35.4812 19.5402 31.7316Z" fill="#E5E5E5"/>
<path d="M38.5887 19.1072C36.6516 20.3106 34.9052 21.7928 33.5111 22.776C32.8103 23.2713 32.2673 23.7299 31.9078 24.0821C31.5409 24.4197 31.3318 24.6105 31.3318 24.6105L34.3402 28.0738C34.3402 28.0738 34.5347 27.8941 34.8795 27.5822C35.2097 27.252 35.716 26.8228 36.3691 26.3678C37.6715 25.4543 39.2931 24.0638 41.0982 22.9448C42.9326 21.8808 44.69 20.6665 46.1245 19.9804C47.559 19.2907 48.5166 18.8321 48.5166 18.8321L46.5537 14.6863C46.5537 14.6863 45.5265 15.1816 43.9856 15.9227C42.4447 16.6638 40.5552 17.9589 38.5887 19.1072Z" fill="#E5E5E5"/>
<path d="M29.5378 21.2828C29.912 20.9123 30.488 20.428 31.2254 19.907C32.693 18.8614 34.5384 17.3021 36.5782 16.0291C38.6511 14.811 40.6506 13.4572 42.2759 12.6721C43.9012 11.8869 44.9835 11.366 44.9835 11.366L43.0207 7.2202C43.0207 7.2202 41.8687 7.77786 40.137 8.61435C38.409 9.45452 36.2737 10.889 34.0688 12.1915C31.8968 13.5489 29.9267 15.1999 28.3637 16.3189C27.5823 16.8766 26.9696 17.3902 26.566 17.7828C26.1551 18.1643 25.9166 18.3771 25.9166 18.3771L28.9251 21.8405C28.9251 21.8441 29.1489 21.635 29.5378 21.2828Z" fill="#E5E5E5"/>
<path d="M58.7159 10.324C57.6116 10.6065 56.5073 10.889 55.4727 11.1569C54.4527 11.4687 53.5282 11.854 52.721 12.1365C51.1141 12.7235 50.0465 13.116 50.0465 13.116L51.7671 17.3682C51.7671 17.3682 52.7614 17.005 54.2583 16.4583C55.0104 16.1978 55.8652 15.8346 56.8155 15.5411C57.7804 15.2953 58.8076 15.0348 59.8349 14.7743C61.8711 14.1616 63.966 13.8241 65.5509 13.6223C67.1249 13.3802 68.1742 13.2151 68.1742 13.2151L67.6715 8.6584C67.6715 8.6584 66.5452 8.83084 64.8539 9.09132C63.1589 9.31512 60.9062 9.67834 58.7159 10.324Z" fill="#E5E5E5"/>
<path d="M51.492 8.68405C52.3432 8.38687 53.3191 7.98697 54.3977 7.65311C55.4874 7.37061 56.6541 7.07343 57.8208 6.77259C60.1321 6.08652 62.5059 5.70129 64.2999 5.47015C66.083 5.19866 67.2753 5.01889 67.2753 5.01889L66.7727 0.454865C66.7727 0.454865 65.5033 0.645644 63.6065 0.931812C61.6987 1.18496 59.1709 1.60321 56.7054 2.3223C55.4654 2.64515 54.2216 2.96434 53.0586 3.26519C51.9103 3.61739 50.8683 4.03931 49.9621 4.3585C48.1571 5.02256 46.9537 5.46281 46.9537 5.46281L48.6744 9.71499C48.6707 9.71132 49.797 9.30408 51.492 8.68405Z" fill="#E5E5E5"/>
<path d="M80.2299 13.083C82.3579 13.1564 84.4344 13.67 86.012 13.8461C87.6006 14.0296 88.6132 14.3487 88.6132 14.3487L89.6111 9.8691C89.6111 9.8691 88.5178 9.53524 86.8155 9.32979C85.1132 9.13167 82.8825 8.59602 80.6042 8.51164C78.3258 8.43092 76.0475 8.20713 74.3378 8.26583C72.6281 8.35021 71.4908 8.41258 71.4908 8.41258L71.7329 12.9949C71.7329 12.9949 72.7969 12.9399 74.3892 12.8555C75.9851 12.7968 78.1057 13.017 80.2299 13.083Z" fill="#E5E5E5"/>
<path d="M74.3048 4.59787C76.1062 4.53917 78.5092 4.76296 80.9123 4.85468C83.3154 4.95374 85.6781 5.50407 87.4648 5.72053C89.2589 5.94433 90.4146 6.29286 90.4146 6.29286L91.4088 1.8169C91.4088 1.8169 90.1798 1.44634 88.2683 1.2042C86.3605 0.969397 83.8437 0.393391 81.2865 0.286995C78.733 0.184268 76.1722 -0.0468681 74.2571 0.0118331C72.3383 0.107223 71.0615 0.169593 71.0615 0.169593L71.3 4.75196C71.3 4.74829 72.5034 4.68592 74.3048 4.59787Z" fill="#E5E5E5"/>
<path d="M94.6044 16.0034C96.0793 16.5978 98.1228 17.1958 100.049 18.0873C101.942 19.0449 103.905 19.8667 105.273 20.6812C106.635 21.5103 107.544 22.0607 107.544 22.0607L109.944 18.1534C109.944 18.1534 108.968 17.5627 107.508 16.6748C106.04 15.8016 103.931 14.9101 101.898 13.8902C99.8325 12.9326 97.6349 12.2796 96.0426 11.6485C95.2465 11.3367 94.5677 11.1202 94.0798 11.0175C93.5955 10.8964 93.3203 10.8267 93.3203 10.8267L92.0656 15.2403C92.0656 15.2403 92.3224 15.3064 92.7663 15.4201C93.2359 15.5118 93.867 15.7136 94.6044 16.0034Z" fill="#E5E5E5"/>
<path d="M97.1983 8.17043C98.8749 8.83082 101.194 9.5279 103.377 10.5368C105.526 11.6081 107.746 12.5583 109.302 13.4756C110.843 14.4111 111.866 15.0348 111.866 15.0348L114.273 11.1275C114.273 11.1275 113.172 10.4634 111.529 9.4692C109.874 8.49329 107.515 7.47335 105.218 6.33602C102.892 5.26472 100.427 4.50894 98.6401 3.81186C97.7412 3.46333 96.9818 3.22485 96.4278 3.10745C95.8848 2.96437 95.5766 2.88365 95.5766 2.88365L94.3256 7.29358C94.3256 7.29358 94.6154 7.37063 95.1254 7.49904C95.6427 7.61644 96.3618 7.83657 97.1983 8.17043Z" fill="#E5E5E5"/>
<path d="M120.25 25.9643C118.595 24.3977 116.874 22.9008 115.451 21.9359C114.082 20.9123 113.169 20.2262 113.169 20.2262L110.545 23.9905C110.545 23.9905 111.397 24.6288 112.67 25.5827C113.99 26.4779 115.594 27.8758 117.138 29.3359C118.775 30.7007 120.176 32.3004 121.24 33.4891C122.315 34.6668 123.027 35.4519 123.027 35.4519L126.567 32.5315C126.567 32.5315 125.8 31.6877 124.648 30.4219C123.515 29.1415 122.003 27.4355 120.25 25.9643Z" fill="#E5E5E5"/>
<path d="M122.741 23.264C124.582 24.8196 126.178 26.621 127.382 27.9674C128.596 29.3029 129.403 30.1907 129.403 30.1907L132.944 27.274C132.944 27.274 132.085 26.3238 130.794 24.9003C129.513 23.4695 127.811 21.5543 125.852 19.896C123.984 18.1387 122.051 16.462 120.462 15.3724C118.925 14.224 117.898 13.4572 117.898 13.4572L115.275 17.2214C115.275 17.2214 116.239 17.9405 117.685 19.0192C119.174 20.0354 120.991 21.613 122.741 23.264Z" fill="#E5E5E5"/>
<path d="M129.766 45.442C130.684 47.3535 131.608 49.2649 132.294 50.7031C132.841 52.1963 133.208 53.1906 133.208 53.1906L137.504 51.58C137.504 51.58 137.115 50.5087 136.517 48.9054C135.772 47.3645 134.785 45.3099 133.795 43.2554C132.617 41.3036 131.432 39.3554 130.548 37.8916C129.535 36.5158 128.86 35.5949 128.86 35.5949L125.155 38.3062C125.155 38.3062 125.786 39.161 126.736 40.4451C127.569 41.8099 128.662 43.6296 129.766 45.442Z" fill="#E5E5E5"/>
<path d="M133.6 35.8517C134.536 37.3926 135.78 39.4508 137.027 41.5091C138.073 43.6773 139.115 45.8419 139.9 47.4709C140.527 49.1622 140.945 50.2922 140.945 50.2922L145.238 48.6816C145.238 48.6816 144.79 47.4819 144.119 45.6805C143.279 43.9488 142.171 41.6375 141.059 39.3298C139.735 37.1358 138.403 34.9455 137.412 33.3019C136.279 31.75 135.519 30.719 135.519 30.719L131.821 33.4303C131.825 33.4266 132.536 34.3952 133.6 35.8517Z" fill="#E5E5E5"/>
<path d="M141.58 70.2837C141.584 68.5667 141.198 66.3177 140.846 64.065C140.597 61.7904 139.966 59.5964 139.537 57.9418C139.115 56.2871 138.832 55.1828 138.832 55.1828L134.452 56.5439C134.452 56.5439 134.712 57.5712 135.105 59.1158C135.497 60.6567 136.099 62.6966 136.33 64.8171C136.653 66.9157 137.023 69.0069 137.016 70.6102C137.097 72.2025 137.152 73.2664 137.152 73.2664L141.738 73.138C141.723 73.1344 141.661 71.9934 141.58 70.2837Z" fill="#E5E5E5"/>
<path d="M143.081 57.0063C143.532 58.7526 144.196 61.0713 144.464 63.4671C144.831 65.8445 145.238 68.2182 145.238 70.0306C145.322 71.832 145.388 73.0317 145.388 73.0317L149.974 72.9033C149.974 72.9033 149.908 71.6265 149.813 69.7077C149.806 67.7853 149.384 65.2538 148.984 62.7186C148.69 60.1688 147.989 57.696 147.513 55.8359C147.028 53.9758 146.705 52.7321 146.705 52.7321L142.328 54.0932C142.328 54.0932 142.629 55.2562 143.081 57.0063Z" fill="#E5E5E5"/>
<path d="M83.5355 71.9897C89.2258 68.8198 93.0744 62.7479 93.0744 55.7698C93.0744 45.5264 84.7682 37.2202 74.5249 37.2202C64.2815 37.2202 55.9753 45.5264 55.9753 55.7698C55.9753 63.566 60.7814 70.2323 67.5871 72.9802C56.5806 112.783 67.5871 72.9802 56.5806 112.783C57.9711 112.783 94.1347 112.783 94.1347 112.783C94.1347 112.783 94.1237 112.78 83.5355 71.9897Z" fill="#E5E5E5"/>
</g>
<defs>
<clipPath id="clip0">
<rect width="150" height="150" fill="white"/>
</clipPath>
</defs>
</svg>
