<svg width="45" height="45" viewBox="0 0 45 45" fill="none" xmlns="http://www.w3.org/2000/svg">
<path d="M41.8532 27.645C41.9765 27.1475 42.1735 26.4893 42.2473 25.8091C42.3496 25.1322 42.4729 24.4575 42.4707 23.9424C42.4949 23.4306 42.5136 23.0883 42.5136 23.0883L41.1378 23.0487C41.1378 23.0487 41.1213 23.3668 41.0982 23.8455C41.1026 24.3265 40.9837 24.9539 40.8902 25.5835C40.8241 26.2185 40.6381 26.8305 40.5226 27.2928C40.4048 27.755 40.3244 28.0632 40.3244 28.0632L41.6386 28.4738C41.6397 28.4727 41.7245 28.1403 41.8532 27.645Z" fill="#E5E5E5"/>
<path d="M43.5703 24.0205C43.5703 24.5631 43.4426 25.2753 43.3358 25.9885C43.2555 26.7072 43.0508 27.4017 42.9176 27.9278C42.78 28.4517 42.6897 28.8006 42.6897 28.8006L44.0028 29.2101C44.0028 29.2101 44.0997 28.8381 44.2461 28.2789C44.3891 27.7198 44.6049 26.9791 44.6907 26.2141C44.8063 25.4558 44.9406 24.6952 44.9428 24.1196C44.9703 23.5439 44.9912 23.1609 44.9912 23.1609L43.6154 23.1202C43.6154 23.1202 43.5967 23.4812 43.5703 24.0205Z" fill="#E5E5E5"/>
<path d="M39.1512 33.6556C39.4175 33.2176 39.7719 32.6309 40.1285 32.0476C40.4268 31.4301 40.7218 30.8149 40.9441 30.3526C41.1246 29.8705 41.2424 29.5502 41.2424 29.5502L39.9546 29.0659C39.9546 29.0659 39.8424 29.3642 39.6784 29.8122C39.4714 30.2425 39.1963 30.816 38.9189 31.3905C38.5898 31.9353 38.2574 32.479 38.0098 32.8874C37.7236 33.2715 37.5343 33.5269 37.5343 33.5269L38.6438 34.3424C38.6438 34.3424 38.8474 34.0673 39.1512 33.6556Z" fill="#E5E5E5"/>
<path d="M41.9567 30.784C41.7223 31.2716 41.4086 31.9221 41.0949 32.5726C40.7207 33.1889 40.3443 33.8064 40.0647 34.2687C39.7422 34.7045 39.5298 34.994 39.5298 34.994L40.6381 35.8096C40.6381 35.8096 40.866 35.5003 41.2072 35.0358C41.5065 34.5427 41.9061 33.8856 42.3056 33.2275C42.6391 32.5351 42.9726 31.8417 43.2236 31.3233C43.4261 30.784 43.5615 30.4241 43.5615 30.4241L42.2737 29.9409C42.2726 29.9398 42.1471 30.2777 41.9567 30.784Z" fill="#E5E5E5"/>
<path d="M33.9297 38.9486C33.9297 38.9486 34.2027 38.7439 34.6132 38.4368C34.8179 38.2794 35.0645 38.1099 35.3121 37.9063C35.5487 37.6917 35.8019 37.4616 36.055 37.2316C36.5812 36.7902 37.0368 36.2806 37.3769 35.8954C37.7214 35.5157 37.9515 35.2636 37.9515 35.2636L36.8915 34.3864C36.8915 34.3864 36.6769 34.622 36.3544 34.9731C36.0385 35.3319 35.6126 35.8085 35.1228 36.219C34.8884 36.4325 34.6517 36.6482 34.4327 36.8486C34.2027 37.0379 33.9704 37.1953 33.7811 37.3417C33.3992 37.6289 33.1449 37.8193 33.1449 37.8193L33.9297 38.9486Z" fill="#E5E5E5"/>
<path d="M38.1947 36.6318C37.8359 37.0357 37.3516 37.5717 36.7991 38.0395C36.5327 38.2827 36.2664 38.5249 36.0143 38.7516C35.7546 38.9651 35.4937 39.1456 35.2791 39.3118C34.8443 39.6354 34.5571 39.8512 34.5571 39.8512L35.3418 40.9804C35.3418 40.9804 35.65 40.7504 36.1134 40.407C36.3412 40.232 36.6164 40.0383 36.8937 39.8093C37.1612 39.5683 37.4462 39.3096 37.7302 39.0521C38.3169 38.5535 38.8331 37.9833 39.2161 37.553C39.6035 37.1248 39.86 36.8409 39.86 36.8409L38.8 35.9637C38.8011 35.9637 38.5579 36.2311 38.1947 36.6318Z" fill="#E5E5E5"/>
<path d="M30.5452 40.8428C31.1571 40.5391 31.7867 40.2672 32.2292 40.0096C32.6672 39.7433 32.96 39.5661 32.96 39.5661L32.2413 38.3928C32.2413 38.3928 31.9694 38.559 31.5611 38.8077C31.1483 39.0466 30.5606 39.2964 29.9916 39.5826C29.4126 39.8457 28.7996 40.0295 28.3571 40.2045C28.137 40.2947 27.9443 40.3509 27.8079 40.3784C27.6725 40.4125 27.5954 40.4323 27.5954 40.4323L27.9697 41.7575C27.9697 41.7575 28.0533 41.7355 28.1975 41.6991C28.345 41.6672 28.5497 41.6089 28.7885 41.5131C29.2662 41.326 29.9233 41.1268 30.5452 40.8428Z" fill="#E5E5E5"/>
<path d="M32.7674 40.9738C32.2974 41.2446 31.6348 41.533 30.9876 41.8532C30.3305 42.1515 29.6382 42.365 29.1341 42.561C28.8821 42.6611 28.6664 42.7228 28.5112 42.758C28.3582 42.7976 28.2723 42.8196 28.2723 42.8196L28.6466 44.1437C28.6466 44.1437 28.739 44.1206 28.9008 44.0777C29.0648 44.0402 29.2948 43.9742 29.5645 43.8685C30.1027 43.6616 30.8413 43.4327 31.5402 43.1146C32.2303 42.7745 32.9358 42.4652 33.4355 42.1768C33.9286 41.8786 34.2577 41.6793 34.2577 41.6793L33.5378 40.506C33.5367 40.5049 33.2286 40.6921 32.7674 40.9738Z" fill="#E5E5E5"/>
<path d="M24.0437 41.0751C23.4064 41.0949 22.7702 41.1642 22.2914 41.1433C21.8138 41.118 21.4957 41.1015 21.4957 41.1015L21.4219 42.4762C21.4219 42.4762 21.7631 42.4938 22.276 42.5202C22.7889 42.5433 23.4713 42.4718 24.1559 42.4498C24.8416 42.4289 25.5108 42.2649 26.0204 42.2066C26.5311 42.1438 26.8602 42.0459 26.8602 42.0459L26.562 40.7009C26.562 40.7009 26.2582 40.7922 25.7816 40.8506C25.305 40.9023 24.682 41.0597 24.0437 41.0751Z" fill="#E5E5E5"/>
<path d="M26.2097 43.2896C25.6726 43.3523 24.9649 43.5218 24.2429 43.5438C23.5231 43.5692 22.8021 43.6418 22.2628 43.6187C21.7224 43.5912 21.3625 43.5736 21.3625 43.5736L21.2887 44.9472C21.2887 44.9472 21.6718 44.9659 22.2474 44.9945C22.8219 45.0176 23.5902 44.945 24.3562 44.9152C25.1245 44.8899 25.8795 44.7116 26.4508 44.6423C27.0242 44.5696 27.3929 44.4618 27.3929 44.4618L27.0947 43.1179C27.0958 43.1201 26.748 43.2214 26.2097 43.2896Z" fill="#E5E5E5"/>
<path d="M18.8332 40.7878C18.5404 40.7295 18.2355 40.6359 17.9263 40.56C17.6181 40.4818 17.3099 40.4026 17.0204 40.33C16.7398 40.2287 16.4778 40.134 16.2533 40.0537C15.8042 39.8919 15.5048 39.7807 15.5048 39.7807L14.9875 41.0564C14.9875 41.0564 15.3089 41.1731 15.7899 41.3503C16.0309 41.4372 16.3127 41.5374 16.6143 41.6474C16.9247 41.7267 17.256 41.8103 17.5873 41.8973C17.9196 41.9787 18.2476 42.0767 18.5613 42.1405C18.8783 42.1878 19.1744 42.233 19.4286 42.2715C19.9349 42.3485 20.2739 42.4014 20.2739 42.4014L20.4269 41.0333C20.4269 41.0333 20.1121 40.9848 19.64 40.9133C19.4044 40.8737 19.1282 40.8318 18.8332 40.7878Z" fill="#E5E5E5"/>
<path d="M18.3467 43.2169C18.0154 43.1509 17.6687 43.0485 17.3176 42.9638C16.9687 42.8735 16.6187 42.7833 16.2907 42.6996C15.9693 42.5951 15.6754 42.4784 15.4201 42.3881C14.9116 42.2021 14.5726 42.0778 14.5726 42.0778L14.0542 43.3534C14.0542 43.3534 14.4152 43.4855 14.9567 43.6847C15.2286 43.7816 15.5422 43.9048 15.8845 44.0149C16.2335 44.1063 16.6055 44.2031 16.9786 44.3C17.3517 44.3913 17.7215 44.4992 18.0748 44.5696C18.4315 44.6247 18.7627 44.6764 19.0478 44.7204C19.6179 44.8063 19.9977 44.8635 19.9977 44.8635L20.1507 43.4954C20.1507 43.4954 19.7941 43.4415 19.258 43.36C18.9939 43.3149 18.6813 43.2676 18.3467 43.2169Z" fill="#E5E5E5"/>
<path d="M13.8142 38.9948C13.3861 38.7846 12.8578 38.4225 12.3075 38.1033C11.7692 37.7621 11.2806 37.3483 10.8898 37.0731C10.6928 36.9366 10.5453 36.8035 10.4441 36.7066C10.3406 36.613 10.2823 36.5591 10.2823 36.5591L9.37863 37.5981C9.37863 37.5981 9.44247 37.6554 9.55253 37.7566C9.6604 37.8601 9.81999 38.0032 10.0313 38.1495C10.4496 38.4467 10.9746 38.8881 11.5524 39.2535C12.1424 39.598 12.7114 39.9832 13.1704 40.2111C13.6326 40.4323 13.9408 40.5809 13.9408 40.5809L14.5319 39.3383C14.5319 39.3394 14.2446 39.2018 13.8142 38.9948Z" fill="#E5E5E5"/>
<path d="M10.9492 40.1747C10.3395 39.7873 9.78365 39.3239 9.3445 39.0081C9.12217 38.8518 8.95487 38.7032 8.8404 38.5931C8.72373 38.4874 8.65659 38.428 8.65659 38.428L7.75296 39.4648C7.75296 39.4648 7.8234 39.5309 7.94888 39.642C8.07105 39.7576 8.25045 39.9172 8.48599 40.0834C8.95377 40.4191 9.54701 40.9122 10.1953 41.3238C10.8557 41.7145 11.4985 42.1427 12.0136 42.4002C12.5331 42.6523 12.8787 42.8185 12.8787 42.8185L13.4686 41.5759C13.4686 41.5759 13.1439 41.4196 12.6563 41.1851C12.1721 40.9441 11.5711 40.5413 10.9492 40.1747Z" fill="#E5E5E5"/>
<path d="M6.71395 34.7816C7.09917 35.3506 7.60547 35.8184 7.93676 36.2091C8.10957 36.3984 8.25265 36.5569 8.35281 36.6681C8.46398 36.7693 8.52781 36.8277 8.52781 36.8277L9.48978 35.8415C9.48978 35.8415 9.43034 35.7886 9.32688 35.6951C9.23333 35.5916 9.09905 35.4441 8.93945 35.2669C8.63127 34.9015 8.15689 34.4668 7.80028 33.9374C7.42606 33.4223 7.01332 32.9325 6.78989 32.5076C6.54225 32.0993 6.37715 31.8274 6.37715 31.8274L5.18625 32.5164C5.18625 32.5164 5.36345 32.8092 5.62981 33.2473C5.87195 33.7007 6.31111 34.229 6.71395 34.7816Z" fill="#E5E5E5"/>
<path d="M7.57577 37.4451C7.46901 37.3295 7.31712 37.1622 7.13551 36.963C6.78441 36.5514 6.2539 36.055 5.84556 35.4573C5.4196 34.8751 4.95843 34.316 4.70088 33.8372C4.42022 33.3749 4.23311 33.0667 4.23311 33.0667L3.04221 33.7557C3.04221 33.7557 3.24142 34.0837 3.5408 34.5768C3.81706 35.0853 4.30465 35.6819 4.75922 36.3004C5.19617 36.9355 5.7575 37.4682 6.13282 37.9041C6.32764 38.1165 6.48943 38.2937 6.6028 38.4192C6.72717 38.5325 6.79762 38.5964 6.79762 38.5964L7.75958 37.6113C7.75848 37.6124 7.69244 37.5519 7.57577 37.4451Z" fill="#E5E5E5"/>
<path d="M3.05759 27.1805C3.20288 27.6725 3.31184 28.3527 3.5793 28.9867C3.99865 30.2931 4.64142 31.505 4.64142 31.505L5.86975 30.8853C5.86975 30.8853 5.2721 29.7582 4.88247 28.5409C4.63042 27.9532 4.53466 27.3181 4.39708 26.8613C4.33655 26.6302 4.28702 26.4376 4.2518 26.3033C4.22098 26.1668 4.21327 26.0876 4.21327 26.0876L2.86278 26.3495C2.86278 26.3495 2.87048 26.4354 2.9024 26.5806C2.93982 26.7259 2.99265 26.9329 3.05759 27.1805Z" fill="#E5E5E5"/>
<path d="M2.537 29.3433C2.25743 28.6752 2.13856 27.9553 1.98667 27.438C1.91953 27.1761 1.8634 26.9571 1.82488 26.8041C1.79186 26.65 1.78195 26.5597 1.78195 26.5597L0.431458 26.8239C0.431458 26.8239 0.441363 26.9196 0.476584 27.0825C0.518409 27.2454 0.577844 27.4788 0.648285 27.7583C0.80898 28.312 0.941058 29.0747 1.23493 29.7879C1.70931 31.2562 2.42913 32.6199 2.42913 32.6199L3.65746 32.0013C3.65746 32.0002 2.98056 30.7213 2.537 29.3433Z" fill="#E5E5E5"/>
<path d="M2.57882 20.6074C2.5535 21.1203 2.51828 21.8038 2.48416 22.4873C2.51828 23.1708 2.5524 23.8543 2.57772 24.3672C2.61844 24.8779 2.68888 25.2158 2.68888 25.2158L4.05259 25.0309C4.05259 25.0309 3.98545 24.7183 3.94802 24.2407C3.92381 23.763 3.89189 23.1257 3.85997 22.4884C3.89189 21.8511 3.92491 21.215 3.94913 20.7373C3.99205 20.2618 4.05589 19.9481 4.05589 19.9481L2.69328 19.761C2.69328 19.761 2.62504 20.0956 2.57882 20.6074Z" fill="#E5E5E5"/>
<path d="M1.48361 24.4663C1.4572 23.9259 1.42087 23.205 1.38565 22.4851C1.42198 21.7653 1.4583 21.0444 1.48471 20.504C1.53314 19.9657 1.60358 19.6102 1.60358 19.6102L0.239879 19.4231C0.239879 19.4231 0.166136 19.8017 0.114405 20.3752C0.0857887 20.9497 0.047266 21.7169 0.00874329 22.484C0.047266 23.2523 0.084688 24.0194 0.113305 24.594C0.159532 25.1674 0.235477 25.546 0.236577 25.546L1.60028 25.3611C1.59918 25.3611 1.52654 25.0067 1.48361 24.4663Z" fill="#E5E5E5"/>
<path d="M4.25621 18.6725C4.29143 18.5371 4.34206 18.3456 4.40149 18.1145C4.53687 17.6566 4.63813 17.0226 4.88908 16.4349C5.11801 15.8416 5.29852 15.2275 5.53406 14.8092C5.74098 14.3789 5.87966 14.0927 5.87966 14.0927L4.65134 13.4719C4.65134 13.4719 4.50275 13.7801 4.28042 14.2424C4.02947 14.6925 3.83246 15.3507 3.58812 15.9891C3.32176 16.622 3.20619 17.3011 3.06311 17.7931C2.99927 18.0418 2.94644 18.2487 2.90792 18.3929C2.87049 18.5382 2.86499 18.6241 2.86499 18.6241L4.21548 18.8893C4.21658 18.8893 4.22099 18.8079 4.25621 18.6725Z" fill="#E5E5E5"/>
<path d="M1.83147 18.1673C1.8711 18.0143 1.92613 17.7964 1.99327 17.5333C2.14296 17.0138 2.26843 16.2973 2.54689 15.6292C2.80334 14.9556 3.01577 14.2622 3.27772 13.7856C3.51326 13.298 3.66956 12.9733 3.66956 12.9733L2.44233 12.3515C2.44233 12.3515 2.27503 12.6971 2.02519 13.2177C1.74892 13.7262 1.51779 14.4625 1.24593 15.1823C0.950953 15.8956 0.813372 16.6572 0.65598 17.2119C0.585538 17.4915 0.526103 17.7248 0.484279 17.8877C0.443555 18.0506 0.436951 18.1475 0.436951 18.1475L1.78745 18.4127C1.78635 18.4127 1.79295 18.3214 1.83147 18.1673Z" fill="#E5E5E5"/>
<path d="M8.54763 8.15689C8.54763 8.15689 8.29008 8.38252 7.95439 8.77215C7.62419 9.16398 7.11349 9.62846 6.72936 10.1975C5.86535 11.2629 5.19946 12.4615 5.19946 12.4615L6.38926 13.1527C6.38926 13.1527 7.00893 12.0356 7.8146 11.0428C8.17121 10.5134 8.64999 10.083 8.95597 9.71651C9.26746 9.3522 9.5085 9.14307 9.5085 9.14307L8.54763 8.15689Z" fill="#E5E5E5"/>
<path d="M5.86205 9.51948C6.26929 8.92183 6.80421 8.42984 7.15421 8.01709C7.50862 7.60655 7.78048 7.36881 7.77938 7.36881L6.81962 6.38153C6.81962 6.38153 6.53125 6.63578 6.15262 7.07164C5.77951 7.5108 5.21377 8.03801 4.77682 8.67308C3.80825 9.87058 3.0576 11.2178 3.0565 11.2178L4.2463 11.909C4.2485 11.909 4.95182 10.6443 5.86205 9.51948Z" fill="#E5E5E5"/>
<path d="M11.5766 5.73217C10.9955 6.09318 10.4716 6.53784 10.0533 6.83281C9.8431 6.9814 9.6802 7.11898 9.57234 7.22464C9.46227 7.3259 9.39954 7.38314 9.39954 7.38314L10.3021 8.42215C10.3021 8.42215 10.3604 8.36822 10.4639 8.27466C10.5629 8.1756 10.7148 8.04683 10.9107 7.91035C11.3015 7.63629 11.7879 7.21914 12.3295 6.88344C12.8798 6.56425 13.407 6.19994 13.8373 5.99412C14.2677 5.7872 14.555 5.64962 14.555 5.64962L13.9661 4.40588C13.9661 4.40588 13.6579 4.55447 13.1957 4.7768C12.7334 4.99913 12.1666 5.38766 11.5766 5.73217Z" fill="#E5E5E5"/>
<path d="M8.86132 6.38486C8.97358 6.2737 9.14639 6.12841 9.36762 5.97212C9.80787 5.65843 10.3615 5.19066 10.9735 4.80873C11.5953 4.44332 12.1952 4.03718 12.6828 3.80164C13.1704 3.5661 13.495 3.40981 13.495 3.40981L12.9062 2.16608C12.9062 2.16608 12.5606 2.33338 12.0411 2.58432C11.5227 2.83637 10.8821 3.26672 10.2206 3.65745C9.56903 4.06469 8.97799 4.55999 8.50911 4.89568C8.27467 5.06298 8.09086 5.21707 7.96979 5.33484C7.84652 5.44931 7.77498 5.51315 7.77498 5.51315L8.67751 6.55216C8.67751 6.55326 8.74465 6.49052 8.86132 6.38486Z" fill="#E5E5E5"/>
<path d="M17.6148 3.09723C17.2835 3.18198 16.9522 3.26673 16.6418 3.34708C16.3358 3.44063 16.0584 3.5562 15.8163 3.64095C15.3342 3.81705 15.0139 3.93482 15.0139 3.93482L15.5301 5.21047C15.5301 5.21047 15.8284 5.10151 16.2775 4.93751C16.5031 4.85937 16.7596 4.7504 17.0446 4.66235C17.3341 4.58861 17.6423 4.51046 17.9505 4.43232C18.5613 4.24851 19.1898 4.14725 19.6653 4.08671C20.1375 4.01407 20.4522 3.96454 20.4522 3.96454L20.3014 2.59753C20.3014 2.59753 19.9636 2.64926 19.4562 2.72741C18.9477 2.79455 18.2719 2.90351 17.6148 3.09723Z" fill="#E5E5E5"/>
<path d="M15.4476 2.60523C15.703 2.51608 15.9957 2.39611 16.3193 2.29595C16.6462 2.2112 16.9962 2.12204 17.3462 2.03179C18.0396 1.82597 18.7518 1.7104 19.29 1.64106C19.8249 1.55961 20.1826 1.50568 20.1826 1.50568L20.0318 0.136475C20.0318 0.136475 19.651 0.193708 19.082 0.279559C18.5096 0.355504 17.7513 0.480978 17.0116 0.696705C16.6396 0.793562 16.2665 0.889318 15.9176 0.979571C15.5731 1.08523 15.2605 1.21181 14.9886 1.30756C14.4471 1.50678 14.0861 1.63886 14.0861 1.63886L14.6023 2.91451C14.6012 2.91341 14.9391 2.79124 15.4476 2.60523Z" fill="#E5E5E5"/>
<path d="M24.069 3.9249C24.7074 3.94691 25.3303 4.101 25.8036 4.15383C26.2802 4.20886 26.584 4.30462 26.584 4.30462L26.8833 2.96073C26.8833 2.96073 26.5553 2.86057 26.0446 2.79893C25.5339 2.7395 24.8647 2.5788 24.1812 2.55349C23.4977 2.52927 22.8142 2.46213 22.3013 2.47974C21.7884 2.50506 21.4472 2.52377 21.4472 2.52377L21.5199 3.89848C21.5199 3.89848 21.8391 3.88197 22.3167 3.85665C22.7955 3.83904 23.4317 3.90508 24.069 3.9249Z" fill="#E5E5E5"/>
<path d="M22.2914 1.37918C22.8318 1.36157 23.5528 1.42871 24.2737 1.45623C24.9946 1.48594 25.7034 1.65104 26.2394 1.71598C26.7777 1.78312 27.1244 1.88768 27.1244 1.88768L27.4226 0.54489C27.4226 0.54489 27.0539 0.433725 26.4805 0.361082C25.9082 0.290641 25.1531 0.117839 24.386 0.08592C23.6199 0.0551019 22.8517 -0.014239 22.2771 0.00337142C21.7015 0.0319883 21.3185 0.0506993 21.3185 0.0506993L21.39 1.42541C21.39 1.42431 21.751 1.4056 22.2914 1.37918Z" fill="#E5E5E5"/>
<path d="M28.3813 4.80103C28.8238 4.97933 29.4368 5.15874 30.0147 5.4262C30.5826 5.71347 31.1715 5.96001 31.582 6.20436C31.9903 6.4531 32.2633 6.6182 32.2633 6.6182L32.9831 5.44601C32.9831 5.44601 32.6904 5.26881 32.2523 5.00245C31.812 4.74049 31.1792 4.47304 30.5694 4.16706C29.9497 3.87979 29.2904 3.68387 28.8128 3.49456C28.5739 3.40101 28.3703 3.33607 28.2239 3.30525C28.0786 3.26893 27.9961 3.24802 27.9961 3.24802L27.6197 4.57209C27.6197 4.57209 27.6967 4.59191 27.8299 4.62603C27.9708 4.65354 28.1601 4.71408 28.3813 4.80103Z" fill="#E5E5E5"/>
<path d="M29.1595 2.45115C29.6625 2.64926 30.3581 2.85839 31.013 3.16106C31.6579 3.48245 32.3238 3.76752 32.7905 4.04268C33.2528 4.32335 33.5599 4.51046 33.5599 4.51046L34.2819 3.33827C34.2819 3.33827 33.9517 3.13905 33.4586 2.84078C32.9622 2.548 32.2545 2.24202 31.5655 1.90082C30.8677 1.57943 30.128 1.3527 29.592 1.14358C29.3224 1.03901 29.0945 0.967473 28.9283 0.932252C28.7654 0.889327 28.673 0.865112 28.673 0.865112L28.2977 2.18809C28.2977 2.18809 28.3846 2.2112 28.5376 2.24973C28.6928 2.28495 28.9085 2.35099 29.1595 2.45115Z" fill="#E5E5E5"/>
<path d="M36.0748 7.78929C35.5785 7.31931 35.0623 6.87024 34.6352 6.58077C34.2247 6.27369 33.9506 6.06787 33.9506 6.06787L33.1636 7.19714C33.1636 7.19714 33.419 7.38865 33.8009 7.67482C34.1971 7.94338 34.6781 8.36272 35.1415 8.80078C35.6324 9.21022 36.0528 9.69011 36.372 10.0467C36.6945 10.4 36.908 10.6356 36.908 10.6356L37.9702 9.75945C37.9702 9.75945 37.7401 9.5063 37.3945 9.12657C37.0544 8.74245 36.601 8.23065 36.0748 7.78929Z" fill="#E5E5E5"/>
<path d="M36.8222 6.9792C37.3747 7.44588 37.8535 7.9863 38.2145 8.39023C38.5788 8.79087 38.8209 9.05723 38.8209 9.05723L39.8831 8.18221C39.8831 8.18221 39.6255 7.89714 39.2381 7.47009C38.854 7.04084 38.3433 6.4663 37.7555 5.96881C37.1953 5.4416 36.6152 4.9386 36.1387 4.61171C35.6775 4.26721 35.3693 4.03717 35.3693 4.03717L34.5824 5.16644C34.5824 5.16644 34.8718 5.38216 35.3055 5.70575C35.7523 6.01063 36.2972 6.48391 36.8222 6.9792Z" fill="#E5E5E5"/>
<path d="M38.9299 13.6326C39.2051 14.206 39.4825 14.7795 39.6883 15.2109C39.8523 15.6589 39.9623 15.9572 39.9623 15.9572L41.2512 15.474C41.2512 15.474 41.1345 15.1526 40.9551 14.6716C40.7317 14.2093 40.4356 13.593 40.1384 12.9766C39.7851 12.3911 39.4296 11.8066 39.1644 11.3675C38.8606 10.9547 38.6581 10.6785 38.6581 10.6785L37.5464 11.4918C37.5464 11.4918 37.7357 11.7483 38.0208 12.1335C38.2706 12.543 38.5986 13.0889 38.9299 13.6326Z" fill="#E5E5E5"/>
<path d="M40.0801 10.7555C40.3608 11.2178 40.7339 11.8352 41.1081 12.4527C41.4218 13.1032 41.7344 13.7526 41.9699 14.2413C42.1581 14.7487 42.2836 15.0877 42.2836 15.0877L43.5714 14.6045C43.5714 14.6045 43.4371 14.2446 43.2357 13.7041C42.9836 13.1846 42.6512 12.4912 42.3177 11.7989C41.9204 11.1407 41.5208 10.4836 41.2237 9.99055C40.8836 9.52498 40.6557 9.2157 40.6557 9.2157L39.5463 10.0291C39.5474 10.028 39.7609 10.3185 40.0801 10.7555Z" fill="#E5E5E5"/>
<path d="M42.474 21.0851C42.4751 20.57 42.3595 19.8953 42.2539 19.2195C42.179 18.5371 41.9897 17.8789 41.8609 17.3825C41.7344 16.8861 41.6496 16.5548 41.6496 16.5548L40.3354 16.9632C40.3354 16.9632 40.4136 17.2714 40.5314 17.7347C40.6491 18.197 40.8296 18.809 40.899 19.4451C40.9958 20.0747 41.107 20.7021 41.1048 21.1831C41.129 21.6607 41.1455 21.9799 41.1455 21.9799L42.5213 21.9414C42.5169 21.9403 42.4982 21.598 42.474 21.0851Z" fill="#E5E5E5"/>
<path d="M42.9242 17.1019C43.0595 17.6258 43.2588 18.3214 43.3391 19.0401C43.4492 19.7533 43.5714 20.4654 43.5714 21.0092C43.5967 21.5496 43.6165 21.9095 43.6165 21.9095L44.9923 21.871C44.9923 21.871 44.9725 21.4879 44.9439 20.9123C44.9417 20.3356 44.8151 19.5761 44.6951 18.8156C44.6071 18.0506 44.3968 17.3088 44.2538 16.7508C44.1085 16.1927 44.0116 15.8196 44.0116 15.8196L42.6985 16.228C42.6985 16.228 42.7888 16.5769 42.9242 17.1019Z" fill="#E5E5E5"/>
<path d="M25.0607 21.5969C26.7678 20.6459 27.9223 18.8244 27.9223 16.7309C27.9223 13.6579 25.4305 11.166 22.3575 11.166C19.2845 11.166 16.7926 13.6579 16.7926 16.7309C16.7926 19.0698 18.2344 21.0697 20.2761 21.8941C16.9742 33.835 20.2761 21.8941 16.9742 33.835C17.3913 33.835 28.2404 33.835 28.2404 33.835C28.2404 33.835 28.2371 33.8339 25.0607 21.5969Z" fill="#E5E5E5"/>
</svg>
